Coordinates
version=1
nRows=16
nColumns=42
inDegrees=yes

Units are S.I. units (second, meters, Newtons, ...)
If the header above contains a line with 'inDegrees', this indicates whether rotational values are in degrees (yes) or radians (no).

endheader
time	pelvis_tilt	pelvis_list	pelvis_rotation	pelvis_tx	pelvis_ty	pelvis_tz	hip_flexion_r	hip_adduction_r	hip_rotation_r	knee_angle_r	knee_adduction_r	knee_angle_r_beta	ankle_angle_r	subtalar_angle_r	mtp_angle_r	hip_flexion_l	hip_adduction_l	hip_rotation_l	knee_angle_l	knee_adduction_l	knee_angle_l_beta	ankle_angle_l	subtalar_angle_l	mtp_angle_l	lumbar_extension	lumbar_bending	lumbar_rotation	arm_flex_r	arm_add_r	arm_rot_r	elbow_flex_r	pro_sup_r	wrist_flex_r	wrist_dev_r	arm_flex_l	arm_add_l	arm_rot_l	elbow_flex_l	pro_sup_l	wrist_flex_l	wrist_dev_l
      2.98000000	     24.69492972	      1.77547763	      3.60490331	      0.85737063	      0.94994287	     -0.54832082	      3.90533306	     -3.51611111	    -23.76752169	     55.61980650	    -19.37624601	      0.97074875	     11.81304726	      9.89272657	     -7.50230690	    -16.77039367	      7.67794335	      0.78832218	     25.35292505	     -0.71104696	      0.44249202	     14.95558764	    -17.52593036	     -7.50230690	    -39.17960846	     -3.56078435	      3.12505350	     12.07178434	    -11.63932298	    -17.88143360	     31.30371675	     90.00000001	      0.00000000	      0.00000000	      1.49937264	    -21.58435511	      7.23519051	     69.13155885	     90.00000001	      0.00000000	      0.00000000
      2.99000000	     24.37187066	      1.85407062	      3.52986039	      0.86110442	      0.94943399	     -0.54967558	      4.88719361	     -3.39983466	    -23.46543686	     54.48231355	    -18.93429714	      0.95089576	     11.83846037	      9.91583704	     -7.50227869	    -16.68547981	      7.92063340	      0.55276993	     25.33619763	     -0.83857159	      0.44220007	     15.13858409	    -17.22627419	     -7.50227869	    -38.94361325	     -3.70664773	      3.01970731	     11.64506499	    -11.67590147	    -17.88674889	     31.30430799	     90.00000001	      0.00000000	      0.00000000	      1.40116176	    -21.67467439	      7.16873677	     69.10750322	     90.00000001	      0.00000000	      0.00000000
      3.00000000	     24.55653902	      1.54575505	      3.32085584	      0.86520253	      0.94998641	     -0.55045258	      5.07663264	     -2.52840706	    -23.37610440	     52.43586524	    -19.14106298	      0.91517849	     11.63752399	     12.31807257	     -7.50221435	    -17.43027628	      7.70182546	      0.46326940	     24.77737076	     -0.80251554	      0.43244670	     15.18458062	    -17.48074564	     -7.50221435	    -39.13204059	     -3.53392683	      3.23731888	     11.44679746	    -11.73387141	    -18.24471837	     30.84585823	     90.00000001	      0.00000000	      0.00000000	      1.36145605	    -21.58051448	      6.87947495	     68.77588158	     90.00000001	      0.00000000	      0.00000000
      3.01000000	     24.46721311	      1.54754721	      3.22782747	      0.86932692	      0.94981374	     -0.55158844	      5.65663165	     -2.25706925	    -24.12624909	     50.67351562	    -19.64178204	      0.88441969	     11.85510949	     15.15091375	     -7.50209553	    -17.76555414	      7.84968450	      0.36791235	     24.46126324	     -0.91675618	      0.42692958	     15.35857784	    -17.38950250	     -7.50209553	    -39.06738959	     -3.60717653	      3.18684042	     11.11791345	    -11.67729331	    -18.86009243	     30.67489320	     90.00000001	      0.00000000	      0.00000000	      1.21752423	    -21.61385960	      6.74457839	     68.80060762	     90.00000001	      0.00000000	      0.00000000
      3.02000000	     24.29853350	      1.49844707	      3.02698505	      0.87329837	      0.94954001	     -0.55251202	      6.28206681	     -1.84679497	    -23.72112191	     49.15997186	    -19.36055705	      0.85800337	     11.78530706	     16.20503309	     -7.50203843	    -17.97228234	      7.94728307	      0.14436723	     24.20520297	     -0.95417095	      0.42246049	     15.53073145	    -17.35984985	     -7.50203843	    -38.93510215	     -3.69150852	      3.25633439	     10.78019870	    -11.71730082	    -19.05618681	     30.44824402	     90.00000001	      0.00000000	      0.00000000	      1.13728607	    -21.62181637	      6.65574367	     68.72854352	     90.00000001	      0.00000000	      0.00000000
      3.03000000	     24.19371075	      1.51255952	      2.93706222	      0.87739961	      0.94927219	     -0.55359130	      6.79772190	     -1.58401975	    -24.24562625	     47.44182193	    -19.61549813	      0.82801600	     11.91535363	     18.58279803	     -7.50190887	    -18.27175572	      8.10210577	      0.01183586	     23.92153682	     -1.07180424	      0.41750958	     15.70404967	    -17.21123349	     -7.50190887	    -38.85792412	     -3.76747215	      3.21308908	     10.47368327	    -11.66153613	    -19.69021110	     30.26697550	     90.00000001	      0.00000000	      0.00000000	      1.00680604	    -21.64451547	      6.55648324	     68.75723457	     90.00000001	      0.00000000	      0.00000000
      3.04000000	     23.90926618	      1.58022916	      2.76926320	      0.88126860	      0.94864131	     -0.55458573	      7.54047448	     -1.35201488	    -23.80554878	     46.17226022	    -19.23556174	      0.80585796	     11.97629716	     18.76209807	     -7.50188480	    -18.29749963	      8.38173728	     -0.21567874	     23.78012763	     -1.27191023	      0.41504152	     15.95336423	    -17.13752808	     -7.50188480	    -38.63661859	     -3.94418110	      3.16557622	     10.11450583	    -11.69067427	    -19.73117791	     30.15304251	     90.00000001	      0.00000000	      0.00000000	      0.92532594	    -21.67704888	      6.52518595	     68.76158404	     90.00000001	      0.00000000	      0.00000000
      3.05000000	     23.76723237	      1.53919856	      2.57324301	      0.88531916	      0.94829455	     -0.55534751	      8.00220300	     -0.93784132	    -23.35900819	     44.68633204	    -18.90478726	      0.77992362	     11.97849433	     19.57292822	     -7.50186051	    -18.54271201	      8.46794899	     -0.41896676	     23.50437702	     -1.30484253	      0.41022877	     16.09119867	    -17.10844318	     -7.50186051	    -38.50334452	     -4.04072917	      3.24405551	      9.78872640	    -11.70359949	    -19.86778993	     29.88992841	     90.00000001	      0.00000000	      0.00000000	      0.83998923	    -21.63724234	      6.49195787	     68.75074874	     90.00000001	      0.00000000	      0.00000000
      3.06000000	     23.88815075	      1.46665601	      2.60569412	      0.88962408	      0.94840012	     -0.55652372	      8.05852828	     -0.65269749	    -24.23961988	     42.84295560	    -19.09659736	      0.74775064	     11.99792782	     22.49051357	     -7.50178742	    -19.13025040	      8.39766990	     -0.61874466	     23.15160076	     -1.26973469	      0.40407166	     16.12952447	    -16.87271809	     -7.50178742	    -38.65964976	     -3.92963307	      3.20557486	      9.50368003	    -11.68949656	    -20.66671514	     29.61203975	     90.00000001	      0.00000000	      0.00000000	      0.75661943	    -21.64496895	      6.41382267	     68.77885170	     90.00000001	      0.00000000	      0.00000000
      3.07000000	     23.72092407	      1.52481556	      2.51276887	      0.89375217	      0.94788290	     -0.55753280	      8.54143270	     -0.50481680	    -24.63086851	     41.44771770	    -19.10993765	      0.72339914	     12.17898158	     24.24723052	     -7.50169412	    -19.32950529	      8.57886543	     -0.77511752	     22.93492201	     -1.33349938	      0.40028990	     16.33207159	    -16.70806090	     -7.50169412	    -38.52396233	     -4.04222456	      3.16389690	      9.22745738	    -11.64554765	    -21.30862202	     29.32313730	     90.00000001	      0.00000000	      0.00000000	      0.67860838	    -21.65097813	      6.45125823	     68.83623584	     90.00000001	      0.00000000	      0.00000000
      3.08000000	     23.62234596	      1.53431072	      2.44813954	      0.89785434	      0.94752746	     -0.55852516	      8.85472127	     -0.28089671	    -24.65069311	     40.14236471	    -18.84797879	      0.70061643	     12.26801485	     25.14471877	     -7.50164447	    -19.60577108	      8.68208424	     -0.91550858	     22.71913078	     -1.37632152	      0.39652364	     16.48268378	    -16.60503527	     -7.50164447	    -38.46892664	     -4.08753863	      3.13684451	      8.93213883	    -11.65817172	    -21.62257692	     29.04297050	     90.00000001	      0.00000000	      0.00000000	      0.62486540	    -21.64750395	      6.47958215	     68.86012480	     90.00000001	      0.00000000	      0.00000000
      3.09000000	     23.40406590	      1.66446215	      2.39253925	      0.90185501	      0.94684367	     -0.55967203	      9.38246415	     -0.29359852	    -24.68855927	     39.26434890	    -18.49671163	      0.68529217	     12.41574485	     25.11134159	     -7.50163244	    -19.68004936	      8.95413967	     -1.10981602	     22.62594029	     -1.48597842	      0.39489715	     16.69268751	    -16.59816322	     -7.50163244	    -38.31631841	     -4.22573144	      3.04226383	      8.56346774	    -11.69476526	    -21.67817259	     28.92190001	     90.00000001	      0.00000000	      0.00000000	      0.58463534	    -21.60215163	      6.49731097	     68.91600668	     90.00000001	      0.00000000	      0.00000000
      3.10000000	     23.25143304	      1.73305915	      2.32810668	      0.90597993	      0.94630128	     -0.56070620	      9.75191860	     -0.19935832	    -24.71657433	     38.28978993	    -18.22004952	      0.66828290	     12.56270791	     25.31373468	     -7.50162286	    -19.86761945	      9.15897610	     -1.19679950	     22.48651491	     -1.59627581	      0.39246372	     16.87561446	    -16.57690232	     -7.50162286	    -38.21235317	     -4.31543611	      2.98642564	      8.23724740	    -11.72216922	    -21.76790059	     28.71774549	     90.00000001	      0.00000000	      0.00000000	      0.53695253	    -21.57561998	      6.53209902	     68.95296968	     90.00000001	      0.00000000	      0.00000000
      3.11000000	     23.48613450	      1.57188081	      2.45743008	      0.91055907	      0.94651990	     -0.56174116	      9.46007630	      0.18239612	    -25.88832699	     36.57703948	    -18.52571446	      0.63838977	     12.39863189	     28.48692099	     -7.50158523	    -20.62211945	      8.95843118	     -1.01583729	     22.13683985	     -1.51844572	      0.38636074	     16.91651329	    -16.40019308	     -7.50158523	    -38.44558573	     -4.08609364	      2.92220738	      8.07600912	    -11.66015677	    -22.80249732	     28.28730637	     90.00000001	      0.00000000	      0.00000000	      0.45106644	    -21.55918299	      6.69707307	     68.99649506	     90.00000001	      0.00000000	      0.00000000
      3.12000000	     23.36029159	      1.62835344	      2.44776631	      0.91479049	      0.94596481	     -0.56272514	      9.73533886	      0.26189642	    -26.04040707	     35.79980868	    -18.28074204	      0.62482453	     12.62294392	     28.74735438	     -7.50156515	    -20.83644439	      9.11706684	     -1.03637708	     22.02050419	     -1.60884585	      0.38433030	     17.17198089	    -16.27679576	     -7.50156515	    -38.35920605	     -4.14817263	      2.84555233	      7.78578840	    -11.66216975	    -22.97549066	     27.98503874	     90.00000001	      0.00000000	      0.00000000	      0.43022342	    -21.52762554	      6.76858383	     69.01770396	     90.00000001	      0.00000000	      0.00000000
      3.13000000	     23.26165957	      1.71679089	      2.45090173	      0.91907298	      0.94541469	     -0.56384015	      9.97202422	      0.22419980	    -26.28062646	     35.20334770	    -17.97371018	      0.61441433	     12.71345485	     28.79845450	     -7.50155636	    -21.06568368	      9.30789659	     -1.08195989	     21.94988568	     -1.68702086	      0.38309778	     17.39376627	    -16.33215774	     -7.50155636	    -38.30612446	     -4.21571399	      2.75171702	      7.46971210	    -11.71152356	    -23.07593361	     27.77655269	     90.00000001	      0.00000000	      0.00000000	      0.41242492	    -21.45194778	      6.82410656	     69.04969745	     90.00000001	      0.00000000	      0.00000000
